#!OML:ASF E:\emotionWalksFemale\Project 1\Capture day 1\Session 1\Female1.ASF
:FULLY-SPECIFIED
:DEGREES
1141
root 8.26677 15.3437 41.6124 2.33324 -178.586 0.172481
lowerback 8.2034 3.74314 1.58281
upperback -2.81589 5.17444 -0.00318675
thorax -7.41914 2.45296 -1.6311
lowerneck -2.01703 17.6238 11.1569
upperneck 5.09683 23.559 -6.63185
head 3.89571 11.7216 -2.29424
rclavicle -3.26257e-015 -7.35503e-015
rhumerus -45.5431 8.03104 -88.343
rradius 32.472
rwrist 14.2372
rhand -2.58798 -55.4248
rfingers 7.12502
rthumb 23.1093 -84.0589
lclavicle -3.26257e-015 -7.35503e-015
lhumerus -38.328 -11.4195 85.9541
lradius 37.0503
lwrist -9.8208
lhand -4.34843 -33.8625
lfingers 7.12502
lthumb 21.4193 -5.02652
rfemur -9.98059 15.592 17.3953
rtibia 29.8336
rfoot -22.7918 -23.5091
rtoes -22.6424
lfemur -10.3037 -23.7806 -22.4584
ltibia 25.2761
lfoot -21.1503 19.7945
ltoes -25.1629
1142
root 8.24071 15.3457 41.6158 2.25469 -178.714 0.381086
lowerback 8.2959 3.73927 1.82917
upperback -2.80942 5.20164 0.0420322
thorax -7.44725 2.45485 -1.73046
lowerneck -1.91101 17.6449 11.2008
upperneck 5.12188 23.6021 -6.70169
head 3.90419 11.7437 -2.32107
rclavicle 1.03954e-014 6.75868e-015
rhumerus -45.6308 8.58324 -89.2955
rradius 32.4133
rwrist 14.0552
rhand -2.38853 -55.9634
rfingers 7.12502
rthumb 23.3007 -84.5733
lclavicle 1.03954e-014 6.75868e-015
lhumerus -38.5885 -11.4677 85.9739
lradius 36.798
lwrist -10.6479
lhand -6.71353 -33.1826
lfingers 7.12502
lthumb 19.1463 -4.10502
rfemur -10.0553 14.9635 17.8673
rtibia 30.2944
rfoot -23.6689 -23.3487
rtoes -19.937
lfemur -10.2215 -23.5994 -22.365
ltibia 25.2754
lfoot -21.0539 19.6974
ltoes -25.5146
1143
root 8.21565 15.3436 41.6173 2.19482 -178.843 0.471287
lowerback 8.34216 3.65237 2.02961
upperback -2.84932 5.11122 0.0778972
thorax -7.50596 2.39973 -1.79641
lowerneck -1.47413 17.7187 11.0552
upperneck 5.03707 23.7344 -6.59135
head 3.79119 11.8211 -2.30964
rclavicle 4.35672e-014 6.55989e-015
rhumerus -45.955 9.7214 -90.4914
rradius 32.5286
rwrist 13.5265
rhand -2.25307 -56.127
rfingers 7.12502
rthumb 23.4307 -84.7205
lclavicle 4.35672e-014 6.55989e-015
lhumerus -39.7872 -11.75 85.9976
lradius 38.0228
lwrist -9.44907
lhand -6.29027 -32.8587
lfingers 7.12502
lthumb 19.5533 -3.82193
rfemur -10.1603 14.3005 18.2126
rtibia 30.7314
rfoot -24.2766 -23.2471
rtoes -17.9859
lfemur -10.2025 -23.4958 -22.3829
ltibia 25.3485
lfoot -21.1589 19.552
ltoes -24.4646
1144
root 8.18938 15.342 41.618 2.25102 -178.909 0.400254
lowerback 8.29191 3.53023 1.84525
upperback -2.97179 4.93883 0.290535
thorax -7.64963 2.32387 -1.44948
lowerneck -0.591031 17.7987 10.8066
upperneck 4.70673 23.9313 -6.79075
head 3.56613 11.9309 -2.41891
rclavicle -2.3747e-014 -1.2921e-014
rhumerus -46.5474 11.4096 -91.6449
rradius 32.7562
rwrist 12.8007
rhand -2.56972 -55.9022
rfingers 7.12502
rthumb 23.1269 -84.5341
lclavicle -2.3747e-014 -1.2921e-014
lhumerus -40.38 -11.0095 86.0311
lradius 38.2425
lwrist -8.49823
lhand -6.0055 -33.1709
lfingers 7.12502
lthumb 19.8271 -4.16218
rfemur -10.3164 13.4473 18.3414
rtibia 30.9648
rfoot -24.2857 -23.512
rtoes -17.2421
lfemur -10.4323 -23.437 -22.5254
ltibia 25.66
lfoot -21.5718 19.3148
ltoes -25.3096
1145
root 8.17008 15.341 41.6159 2.50201 -179.229 0.348539
lowerback 8.03518 3.56022 1.65959
upperback -3.11093 4.95574 0.370364
thorax -7.6729 2.34053 -1.25295
lowerneck -0.0180943 17.8089 10.7878
upperneck 4.4517 24.0022 -7.03963
head 3.4345 11.9738 -2.54344
rclavicle -4.43197e-014 -1.76918e-014
rhumerus -46.9585 12.6619 -92.8773
rradius 32.8335
rwrist 12.3284
rhand -2.93752 -55.5605
rfingers 7.12502
rthumb 22.7739 -84.2362
lclavicle -4.43197e-014 -1.76918e-014
lhumerus -41.1132 -11.116 86.3583
lradius 38.2299
lwrist -9.23294
lhand -10.033 -32.948
lfingers 7.12502
lthumb 15.9519 -3.58485
rfemur -10.6683 12.7515 18.473
rtibia 31.1351
rfoot -24.0897 -23.8102
rtoes -16.6526
lfemur -10.8405 -23.0488 -22.5687
ltibia 25.9868
lfoot -21.902 19.1282
ltoes -24.4444
